inDegrees=no
num_controls=7
num_derivatives=13
num_iterations=92
num_multipliers=7
num_parameters=0
num_slacks=7
num_states=26
objective=0.412623
objective_accelerations=0.028940
objective_balance=0.000663
objective_effort=0.027469
objective_height=0.349887
objective_ligament=0.005665
solver_duration=993.921282
status=Solve_Succeeded
success=true
DataType=double
version=3
OpenSimVersion=4.5
endheader
time	/jointset/ground_pelvis/pelvis_tilt/value	/jointset/ground_pelvis/pelvis_tx/value	/jointset/ground_pelvis/pelvis_ty/value	/jointset/hip_r/hip_flexion_r/value	/jointset/hip_r/hip_adduction_r/value	/jointset/hip_r/hip_rotation_r/value	/jointset/back/lumbar_extension/value	/jointset/patellofemoral_r/patellar_flexion_r/value	/jointset/knee_r/knee_flexion_r/value	/jointset/knee_r/knee_adduction_r/value	/jointset/knee_r/knee_rotation_r/value	/jointset/ankle_r/ankle_angle_r/value	/jointset/subtalar_r/subtalar_angle_r/value	/jointset/ground_pelvis/pelvis_tilt/speed	/jointset/ground_pelvis/pelvis_tx/speed	/jointset/ground_pelvis/pelvis_ty/speed	/jointset/hip_r/hip_flexion_r/speed	/jointset/hip_r/hip_adduction_r/speed	/jointset/hip_r/hip_rotation_r/speed	/jointset/back/lumbar_extension/speed	/jointset/patellofemoral_r/patellar_flexion_r/speed	/jointset/knee_r/knee_flexion_r/speed	/jointset/knee_r/knee_adduction_r/speed	/jointset/knee_r/knee_rotation_r/speed	/jointset/ankle_r/ankle_angle_r/speed	/jointset/subtalar_r/subtalar_angle_r/speed	/forceset/tau_hip_flexion_r	/forceset/tau_hip_adduction_r	/forceset/tau_hip_rotation_r	/forceset/tau_knee_flexion_r	/forceset/tau_ankle_angle_r	/forceset/tau_subtalar_angle_r	/forceset/tau_lumbar_extension	lambda_cid13_p0	lambda_cid14_p0	lambda_cid14_p1	lambda_cid14_p2	lambda_cid14_p3	lambda_cid14_p4	lambda_cid14_p5	/jointset/ground_pelvis/pelvis_tilt/accel	/jointset/ground_pelvis/pelvis_tx/accel	/jointset/ground_pelvis/pelvis_ty/accel	/jointset/hip_r/hip_flexion_r/accel	/jointset/hip_r/hip_adduction_r/accel	/jointset/hip_r/hip_rotation_r/accel	/jointset/back/lumbar_extension/accel	/jointset/patellofemoral_r/patellar_flexion_r/accel	/jointset/knee_r/knee_flexion_r/accel	/jointset/knee_r/knee_adduction_r/accel	/jointset/knee_r/knee_rotation_r/accel	/jointset/ankle_r/ankle_angle_r/accel	/jointset/subtalar_r/subtalar_angle_r/accel	gamma_cid13_p0	gamma_cid14_p0	gamma_cid14_p1	gamma_cid14_p2	gamma_cid14_p3	gamma_cid14_p4	gamma_cid14_p5
1.5	0.008753866478452147	0.06960113519952076	0.8608801606860402	0.5696291708336959	-0.2144486677267523	-0.1685539880607162	-0.6002236077245761	0.7855815412214285	0.7855815412214369	-0.04554966242057713	0.1741848769585109	0.2980091662775934	0.1539446590561465	0.2216083628452174	0.1636666216653127	0.3274789138349409	-1.370016436980656	-3.956416000127771e-05	-0.1034386798256148	0.805203378113127	-1.559536637858663	-1.559536637858668	0.4576307383562582	0.005881651321455676	-0.5206300055437273	-0.218242813760532	-0.1024928357990255	0.004450315791935148	0.01708276022876707	-0.286816709840322	-0.01209578819257286	-0.005518801570725595	0.1767547449261236	-17.33522201649089	-47.02011616340819	-8.640927100450069	-0.4721201690029746	2.121969068305002	-640.9382780082191	63.04709430129359	-0.07941199991301287	0.3078459905473133	-0.3314210797040222	-0.6777723854709171	-0.2527687997855679	-0.4622202016100764	1.372943113086762	-1.109398334861987	-1.109398334861974	0.5216848037410928	-0.08553044178545531	-0.5202557839926664	-0.3707832124245516	4.168543822218912e-08	4.253122271455248e-08	-2.313987709142324e-07	6.890623553984621e-07	-1.395832514182305e-09	1.326468152371876e-07	-3.928414909246525e-07
1.51	0.01096566983055343	0.07125289958226311	0.8641376419627418	0.5558971212967752	-0.2144619984235826	-0.1696114705655873	-0.5921044181507014	0.7699330170650792	0.7699330170650359	-0.04094723402093196	0.1742395967305788	0.2927774704368191	0.1517436474428213	0.2207130638968602	0.1666547651823238	0.3239425824022168	-1.376168145915851	-0.002617908084352015	-0.108081803813428	0.8184925585507727	-1.569923762260907	-1.569923762260912	0.4627598425320825	0.005044273021920331	-0.5256290288481641	-0.2218979748555145	-0.09696935203955021	0.002944129505614913	0.01681243511760216	-0.283826804002926	-0.009852170897860019	-0.006236892521486443	0.1713155234534903	-18.08215514886411	-46.11661107211354	-8.669214993550071	-0.6108264401981045	2.012585628243552	-637.544966285846	62.89590675475743	-0.1004737082606031	0.2895787797541702	-0.3759235511008748	-0.55006781633	-0.2590048405682909	-0.4688542816258194	1.285608792627274	-0.9667146892216455	-0.9667146892216778	0.4942201907589645	-0.08544910810255728	-0.4776916085655478	-0.3536486053687473	4.674364095474079e-08	3.87527530540554e-08	-3.545956464241385e-07	6.192788092561576e-07	1.174321446186872e-08	1.424156495061931e-07	-4.588015265465657e-07
1.52	0.01316734321995996	0.07293360144967083	0.8673575230499113	0.5421103151367199	-0.2145008400900154	-0.1707160834671985	-0.5838565961157521	0.7541879526254006	0.7541879526254093	-0.03629637518628561	0.1742854212028527	0.2874981911620246	0.1495079310090784	0.2195823703099925	0.1694541185983865	0.319958875927654	-1.380967761602469	-0.005141758081000666	-0.112864759171617	0.8309298703293736	-1.578844694515797	-1.578844694515803	0.4673168253581529	0.004102591359776322	-0.5301466923484591	-0.2251837778438429	-0.09144586828018711	0.00143794321918871	0.01654211000710118	-0.280836898165482	-0.007608553603180549	-0.006954983472434573	0.1658763019807709	-18.82384931697066	-45.21560030921935	-8.698659832745738	-0.7485257125786798	1.896348772555376	-634.1829008506145	62.77741611727012	-0.1264909276154254	0.2700879703577218	-0.4208960880717904	-0.4073537357551855	-0.2418700142452416	-0.4901864756853161	1.202569381277731	-0.8161599053913318	-0.816159905391332	0.4072605337902734	-0.1063911143071153	-0.4239838231641692	-0.2969115910936921	4.944999962547315e-08	3.5544461916425e-08	-4.376429961361778e-07	5.447303215097454e-07	2.092037809234667e-08	1.473739733908087e-07	-4.915227235278317e-07
1.53	0.01535693264220466	0.07464141414667569	0.8705353902056741	0.5282818163297516	-0.2145648691115518	-0.1718695055364551	-0.575488719657514	0.738361263384975	0.7383612633849406	-0.03160256882137642	0.1743219552694137	0.2821763945549461	0.1472409413563182	0.2183297172767112	0.17208293923371	0.3155446062151895	-1.384542185539403	-0.007685594140543517	-0.1178401753720664	0.8425045880978559	-1.586213093493257	-1.586213093493263	0.4714082526827965	0.003239869590151987	-0.5341075122912201	-0.2281921026321268	-0.08623803874001866	-0.0001276234195426713	0.01625914094164841	-0.277646811410951	-0.005556503465308684	-0.007663170294051307	0.1607319523620619	-19.55969299414154	-44.38308948480332	-8.73330485206013	-0.8882428579868191	1.734542011990511	-630.987491811461	62.64567305344009	-0.1255212737970209	0.2554625846506555	-0.4621553365902009	-0.3040120485382168	-0.2638444589921025	-0.504211225176624	1.113797991694311	-0.6551808354306614	-0.6551808354307236	0.4046006064760552	-0.07079963278830945	-0.3663460229413232	-0.2995137368143697	4.96575239805225e-08	3.294198545934044e-08	-4.780314746879842e-07	4.651190833089685e-07	2.588804066815329e-08	1.472211299920102e-07	-4.889276544534105e-07
1.54	0.01753382177757642	0.07637475174493988	0.8736670220795655	0.5144232682182155	-0.2146549773051245	-0.1730732801743091	-0.5670093210181849	0.7224692899664364	0.7224692899664437	-0.02686894482830749	0.1743509447333966	0.2768181467598207	0.1449445242928501	0.2170423129389518	0.174559098850256	0.3107118195525609	-1.38697762251134	-0.0103575924873869	-0.1229352728906083	0.8532343065487756	-1.591901530131001	-1.591901530131008	0.4752803509944338	0.002593670840590413	-0.5374369299583504	-0.2310692599851546	-0.08103020919994425	-0.001693190058352516	0.01597617187675701	-0.2744567246563787	-0.003504453327459193	-0.008371357115804289	0.1555876027432772	-20.28931287121279	-43.55213546615214	-8.769878321471493	-1.025760822601446	1.566485725421407	-627.8079769483247	62.53788965130359	-0.1334411885113222	0.2395557666023235	-0.5045994781046255	-0.1795563427555235	-0.2675024717054346	-0.5141227393039016	1.033569517765281	-0.480167437448066	-0.4801674374480657	0.3633947311890469	-0.06308651029450196	-0.2977033680378227	-0.2706781040424438	5.721273012392266e-08	3.150227065732085e-08	-5.924617119906186e-07	3.81291206217288e-07	3.914106306404127e-08	1.430331444026012e-07	-5.216297925290937e-07
1.55	0.01969708991947965	0.07813184106816595	0.8767483305949683	0.5005467245774217	-0.2147720798064516	-0.1743291723635246	-0.5584272415536943	0.7065282441492864	0.70652824414926	-0.02209851158074875	0.174374586429671	0.2714292265428173	0.142620319085994	0.2155504549498568	0.1768080960735424	0.3054890215990221	-1.38807330816471	-0.01305068142772872	-0.1282468473256368	0.8629984113330441	-1.59607433241869	-1.596074332418691	0.4787334613395905	0.002121664330879872	-0.5402938995463447	-0.2337232398803996	-0.07518348250612469	-0.003359328489524421	0.01574408981389174	-0.2720358307803691	-0.001133735823283422	-0.00921248913434157	0.1499000599430698	-21.01265719138206	-42.66640088827715	-8.871316974522529	-1.13384079859547	1.624865423772552	-624.9954798524135	62.4642584869603	-0.166185370824203	0.2099861637027481	-0.5402233861787755	-0.03590250809275674	-0.2684175796824798	-0.5401387649082579	0.9203547063861527	-0.3508579186357058	-0.350857918634752	0.3252250165046437	-0.04118264181988444	-0.2716768327840975	-0.2555902243750878	7.323374354520477e-08	3.140225950135431e-08	-7.92200932201811e-07	2.926050277947839e-07	6.194026090480507e-08	1.341959732457498e-07	-5.950004518864167e-07
1.56	0.02184361402812923	0.07990990325632701	0.8797755904444	0.4866669585137817	-0.2149157542920833	-0.1756382730909551	-0.5497530162918407	0.6905524660503908	0.690552466050398	-0.01729575606370138	0.1743931230767504	0.2660133400142163	0.1402710076217621	0.2136935062921689	0.178753671837254	0.29990208635765	-1.387622107076647	-0.01567198934738859	-0.1335769805329179	0.871663466022457	-1.598847986474623	-1.598847986474618	0.4817448048977815	0.001572661000740434	-0.5428301922784936	-0.2360905114600272	-0.06933675581236147	-0.005025466920798071	0.01551200775147704	-0.2696149369043161	0.001236981680866066	-0.01005362115304745	0.1442125171428192	-21.72894223115668	-41.78139850882196	-8.974393522614115	-1.239935265879849	1.677042598290175	-622.1914812665181	62.40852765557873	-0.2064593222301109	0.1788714746875196	-0.5774269356712771	0.1298210055315188	-0.2531462675691209	-0.5178344937544582	0.8137594987942364	-0.2003377910970683	-0.2003377910970688	0.275041373795917	-0.07848587438025402	-0.2335679968685858	-0.2133364409189342	7.75668931846982e-08	2.764934462256549e-08	-8.589735193575535e-07	2.000605370710055e-07	7.326334089060141e-08	1.151745157204076e-07	-5.873182434365898e-07
1.57	0.02397011867890874	0.08170619489350012	0.8827451908589511	0.4727989775587255	-0.2150849539522538	-0.1770013392627363	-0.5409966795048605	0.6745564814894452	0.674556481489434	-0.01246627398110516	0.1744058386261279	0.2605745851643401	0.1379002826725949	0.2115925510263748	0.1804836234595535	0.2939637076857468	-1.385780353491101	-0.0181350620464605	-0.1390951375812764	0.879505778340697	-1.600073017072648	-1.600073017072635	0.4839924859006823	0.0009851863500562124	-0.544786974977347	-0.2379479422302907	-0.06440679306515998	-0.006531968939175438	0.01521216599463485	-0.2667361358205058	0.00345575416920499	-0.01086005571913069	0.1394657323764663	-22.43073281267156	-40.95311943861622	-9.068963865428906	-1.351234115309552	1.39821426097141	-619.7880763037101	62.32941123629728	-0.2141428111133084	0.1669158861042677	-0.6101736348309913	0.2404136953693016	-0.2380126929481433	-0.5775894444788774	0.7547501433971028	-0.04221167216379326	-0.04221167216248867	0.1756632648817321	-0.04667194808705717	-0.1566357040940619	-0.1560712501602332	6.72902130969559e-08	1.933030009024889e-08	-7.595378151939851e-07	1.026931559706343e-07	7.024127355768857e-08	8.342270023445199e-08	-4.783199502278268e-07
1.58	0.0260751679405392	0.08351915782291668	0.8856537814264112	0.4589552263715777	-0.2152778093238019	-0.1784213436318141	-0.5321648629856897	0.6585565214269035	0.6585565214269072	-0.007619108728226088	0.1744131206914663	0.2551202820279349	0.1355141584447077	0.2094024284662362	0.1820879302859452	0.2877001169387993	-1.382776153493402	-0.02040313162040575	-0.1449646199937344	0.886759412461269	-1.599643086791006	-1.599643086790984	0.4852814389573601	0.0004859641923832682	-0.5459398495842123	-0.2391703672037559	-0.05947683031791254	-0.008038470957548883	0.01491232423799975	-0.2638573347366627	0.005674526657546576	-0.011666490285208	0.1347189476101449	-23.11412584091846	-40.12926146511798	-9.166759204282407	-1.459219016055869	1.121843356449068	-617.4435029836603	62.26604682423377	-0.2242927810992697	0.1537425155061709	-0.6424693506801559	0.3623102879622437	-0.2141456425438271	-0.5880995665743627	0.6960238592606777	0.1306543848364329	0.1306543848364347	0.08329578455133568	-0.06083537577800849	-0.07278637847072976	-0.08633528155922533	6.998954390969303e-08	1.53941797655397e-08	-7.811176413701305e-07	1.200845784344425e-08	7.831858681654968e-08	4.825467409028156e-08	-4.316442809040379e-07
1.59	0.02815746628631551	0.0853472582986252	0.8884982642814877	0.4451476362580695	-0.2154926141486472	-0.179900582941647	-0.5232642061373558	0.642568486925674	0.6425684869256394	-0.002762302969335459	0.1744154093063684	0.2496575945795934	0.1331181934376064	0.2070154221986628	0.1834832804842017	0.2811589686846491	-1.378536730800838	-0.02255529104590953	-0.1507538690803164	0.8931833071332963	-1.597757332598251	-1.597757332598243	0.4861125377208327	-0.0001188535713272846	-0.5465550576533862	-0.2400041729818142	-0.05380829327966511	-0.009756378534239326	0.01466143903118036	-0.2618227867513551	0.008210156850261658	-0.01258901178689555	0.1293421860129743	-23.77631037917666	-39.25685174891847	-9.32103931752204	-1.54155662989921	1.13083045053744	-615.5494823349046	62.26175980835257	-0.2521717435886204	0.1251216667962457	-0.6655634259780091	0.485532441522706	-0.2154961645819955	-0.5548810994106675	0.5872747602872981	0.248487585184809	0.2484875851826103	0.08777577684759733	-0.07393478413889712	-0.04945563938527433	-0.07931845659250067	9.029917523022271e-08	1.74063137225831e-08	-9.66932830150164e-07	-6.960688482014316e-08	1.014593451642461e-07	8.450362052819898e-09	-4.69549315424138e-07
